<?xml version="1.0" standalone="no"?>
<!DOCTYPE svg PUBLIC "-//W3C//DTD SVG 20010904//EN"
 "http://www.w3.org/TR/2001/REC-SVG-20010904/DTD/svg10.dtd">
<svg version="1.0" xmlns="http://www.w3.org/2000/svg"
 width="152.000000pt" height="152.000000pt" viewBox="0 0 152.000000 152.000000"
 preserveAspectRatio="xMidYMid meet">

<g transform="translate(0.000000,152.000000) scale(0.100000,-0.100000)"
fill="#000000" stroke="none">
<path d="M0 760 l0 -760 760 0 760 0 0 760 0 760 -760 0 -760 0 0 -760z m1377
654 c65 -47 63 -31 63 -654 0 -623 2 -607 -63 -654 -26 -20 -44 -21 -258 -24
l-229 -3 0 681 0 681 229 -3 c214 -3 232 -4 258 -24z m-952 -464 c-3 -5 -15
-10 -26 -10 -30 0 -39 -40 -39 -178 1 -199 14 -232 96 -232 90 0 113 50 114
247 0 124 -9 163 -39 163 -11 0 -23 5 -26 10 -4 6 23 10 75 10 52 0 79 -4 75
-10 -3 -5 -15 -10 -25 -10 -26 0 -28 -15 -33 -190 -4 -162 -15 -197 -70 -230
-40 -25 -153 -28 -197 -5 -63 33 -70 53 -71 214 -2 178 -6 205 -37 209 -12 2
-22 8 -22 13 0 5 51 9 116 9 74 0 113 -4 109 -10z m373 -362 c7 -7 12 -24 12
-38 0 -35 -17 -50 -57 -50 -32 0 -53 21 -53 54 0 38 70 62 98 34z"/>
<path d="M988 945 l32 -15 -2 -203 -3 -202 -27 -3 c-16 -2 -28 -6 -28 -10 0
-4 50 -7 110 -7 61 0 110 3 110 8 0 4 -9 7 -20 7 -29 0 -40 31 -40 114 l0 76
38 0 c58 0 113 19 144 50 22 23 28 38 28 72 0 94 -49 120 -240 124 -127 4
-133 3 -102 -11z m212 -35 c15 -15 20 -33 20 -74 0 -63 -20 -94 -65 -98 l-30
-3 -3 98 -3 97 31 0 c17 0 39 -9 50 -20z"/>
</g>
</svg>
