<?xml version="1.0" standalone="no"?>
<!DOCTYPE svg PUBLIC "-//W3C//DTD SVG 20010904//EN"
 "http://www.w3.org/TR/2001/REC-SVG-20010904/DTD/svg10.dtd">
<svg version="1.0" xmlns="http://www.w3.org/2000/svg"
 width="441.000000pt" height="406.000000pt" viewBox="0 0 441.000000 406.000000"
 preserveAspectRatio="xMidYMid meet">

<g transform="translate(0.000000,406.000000) scale(0.100000,-0.100000)"
fill="#000000" stroke="none">
<path d="M516 3854 c-133 -32 -279 -147 -344 -270 -66 -126 -63 -52 -59 -1556
2 -1254 4 -1367 19 -1411 27 -76 82 -158 145 -218 68 -65 123 -99 213 -131
l65 -23 1270 0 1270 0 73 27 c94 34 156 75 225 146 177 186 195 478 43 678
l-36 47 0 122 0 123 36 31 c31 28 34 34 22 49 -11 15 -11 16 3 4 14 -11 40 12
198 169 100 100 178 186 175 191 -4 6 -2 8 4 4 11 -7 159 140 155 155 -2 5 2
8 8 6 16 -3 83 86 99 131 10 27 15 142 19 443 l6 405 27 32 c38 46 83 146 98
220 16 79 8 208 -18 282 -22 62 -53 120 -64 120 -5 0 -8 6 -8 14 0 22 -125
133 -182 162 -125 63 17 58 -1773 61 -1384 1 -1639 -1 -1689 -13z m2593 -309
c89 -45 139 -138 128 -241 -7 -64 -24 -97 -77 -151 l-42 -42 0 -248 c0 -372
19 -321 -197 -537 -100 -100 -179 -185 -176 -189 3 -4 2 -5 -2 -2 -3 3 -28
-15 -54 -40 l-48 -45 -433 -1 c-238 -1 -438 -2 -445 -3 -7 0 -26 -22 -42 -48
-59 -93 -183 -156 -287 -145 -224 23 -354 251 -255 451 38 77 92 128 168 156
64 24 159 26 209 5 20 -8 41 -12 47 -8 5 3 8 2 5 -3 -3 -5 11 -19 31 -32 20
-13 54 -48 76 -78 l39 -54 396 0 395 0 162 162 163 163 0 250 0 250 -35 28
c-82 65 -111 196 -66 290 63 131 209 179 340 112z m717 7 c149 -77 178 -278
58 -399 l-44 -43 -1 -408 c-1 -224 -3 -424 -6 -444 -3 -25 -19 -53 -44 -81
-21 -25 -35 -48 -31 -52 4 -5 2 -5 -4 -2 -12 7 -157 -135 -149 -146 3 -4 2 -5
-2 -2 -11 9 -223 -207 -216 -219 3 -6 2 -7 -2 -3 -12 10 -156 -133 -148 -147
3 -6 2 -8 -2 -3 -5 4 -35 -18 -67 -50 l-58 -57 0 -239 0 -239 54 -59 c43 -47
57 -69 67 -113 16 -72 5 -135 -34 -193 -110 -164 -348 -144 -430 37 -41 91
-21 192 54 272 l49 52 0 286 c0 231 3 289 14 305 8 11 170 175 360 365 l346
345 0 399 0 399 -39 34 c-72 61 -99 162 -71 264 18 65 91 134 170 160 40 13
133 3 176 -19z"/>
<path d="M1392 2264 c-28 -19 -52 -65 -52 -98 0 -36 21 -78 36 -72 8 3 11 0 8
-8 -8 -20 50 -40 94 -33 56 9 92 54 92 116 0 43 -4 52 -35 80 -28 24 -45 31
-78 31 -23 0 -53 -7 -65 -16z"/>
</g>
</svg>
