<?xml version="1.0" standalone="no"?>
<!DOCTYPE svg PUBLIC "-//W3C//DTD SVG 20010904//EN"
 "http://www.w3.org/TR/2001/REC-SVG-20010904/DTD/svg10.dtd">
<svg version="1.0" xmlns="http://www.w3.org/2000/svg"
 width="500.000000pt" height="500.000000pt" viewBox="0 0 500.000000 500.000000"
 preserveAspectRatio="xMidYMid meet">

<g transform="translate(0.000000,500.000000) scale(0.100000,-0.100000)"
fill="#000000" stroke="none">
<path d="M5 4309 l0 -680 60 6 c33 3 152 12 265 20 1670 125 3045 427 4377
961 127 51 243 99 258 106 26 14 26 15 28 141 l2 127 -2495 0 -2495 0 0 -681z"/>
<path d="M4905 4568 c-49 -22 -182 -78 -294 -124 -1313 -542 -2761 -897 -4276
-1048 -137 -14 -267 -27 -288 -28 l-38 -3 -2 -283 c-1 -155 1 -282 5 -282 45
0 797 153 1138 231 1299 299 2638 749 3688 1242 l154 72 1 133 c1 72 2 132 2
131 0 0 -40 -18 -90 -41z"/>
<path d="M4840 4069 c-1365 -663 -2992 -1219 -4690 -1604 -63 -14 -122 -28
-130 -30 -13 -4 -15 -67 -15 -490 0 -319 3 -484 10 -481 6 2 161 67 345 144
1377 575 2772 1250 3930 1900 258 145 648 370 678 391 22 16 24 24 25 129 1
62 0 112 -3 112 -3 -1 -70 -32 -150 -71z"/>
<path d="M4950 3500 c-25 -17 -44 -35 -42 -41 1 -6 -2 -8 -8 -4 -5 3 -126 -68
-267 -158 -142 -90 -322 -203 -400 -251 -82 -51 -140 -93 -136 -99 3 -6 1 -7
-5 -3 -7 4 -148 -74 -319 -177 -1012 -605 -1880 -1077 -3043 -1653 -371 -185
-685 -340 -698 -347 l-23 -12 -2 -372 -2 -372 182 94 c264 137 616 328 958
520 603 338 1422 826 1418 844 -2 6 3 8 10 5 20 -7 1092 670 1083 685 -3 4 3
7 12 7 27 0 804 523 796 536 -4 7 -3 8 4 4 16 -9 195 112 186 126 -4 7 -3 8 5
4 13 -9 264 161 256 174 -3 5 0 12 6 16 8 4 9 3 5 -4 -11 -19 5 -14 38 12 l31
23 -5 227 c-3 137 -1 231 5 237 17 17 0 9 -45 -21z"/>
<path d="M4983 2918 c-4 -7 -8 -16 -8 -20 0 -3 -4 -10 -9 -15 -5 -5 -6 -3 -2
5 4 6 3 12 -3 12 -10 0 -26 -19 -26 -32 0 -3 -4 -10 -9 -15 -5 -5 -6 -3 -2 5
4 6 4 12 1 12 -15 0 -335 -243 -330 -250 3 -5 0 -12 -6 -16 -8 -4 -9 -3 -5 4
13 21 -5 13 -55 -24 -27 -20 -47 -40 -44 -44 3 -5 0 -12 -6 -16 -8 -4 -9 -3
-5 4 13 22 -6 12 -70 -34 -36 -25 -62 -49 -59 -54 3 -5 0 -12 -6 -16 -8 -4 -9
-3 -5 4 11 18 -3 14 -35 -9 -16 -11 -27 -24 -24 -29 3 -5 0 -12 -6 -16 -8 -4
-9 -3 -5 4 13 22 -6 12 -85 -44 -44 -30 -77 -59 -74 -64 3 -5 0 -12 -6 -16 -8
-4 -9 -3 -5 4 12 19 -3 14 -50 -19 -25 -17 -42 -35 -38 -41 4 -7 2 -8 -4 -4
-16 9 -134 -72 -126 -86 4 -7 3 -8 -4 -4 -16 9 -164 -92 -156 -106 4 -7 3 -8
-4 -4 -16 9 -315 -192 -306 -206 4 -7 3 -8 -5 -4 -14 9 -64 -21 -56 -33 2 -5
-3 -8 -13 -7 -9 0 -16 -5 -14 -12 1 -8 -2 -11 -8 -7 -15 9 -381 -235 -373
-248 3 -6 1 -7 -6 -3 -16 10 -173 -93 -164 -107 3 -6 1 -7 -6 -3 -15 10 -143
-73 -134 -87 3 -6 1 -7 -5 -3 -16 9 -594 -353 -585 -367 3 -6 1 -7 -5 -3 -6 3
-213 -115 -459 -262 -246 -148 -592 -352 -768 -453 l-321 -184 336 3 335 3
220 131 c475 284 1198 745 1190 758 -3 4 3 7 13 6 9 0 16 4 15 9 -1 6 6 11 15
11 24 0 384 243 377 254 -3 5 0 12 6 16 8 5 9 3 4 -6 -5 -8 -3 -11 6 -8 8 3
14 10 14 15 0 6 4 15 9 20 5 5 6 3 2 -5 -12 -21 2 -14 82 40 223 149 432 300
427 308 -3 5 0 12 6 16 8 4 9 3 5 -4 -4 -7 -4 -12 1 -12 17 1 383 272 378 280
-3 5 0 12 6 16 8 4 9 3 5 -4 -14 -22 7 -12 75 39 38 28 67 55 64 59 -3 5 0 12
6 16 8 4 9 3 5 -4 -4 -7 -3 -12 3 -12 10 0 26 19 26 32 0 3 4 10 9 15 5 5 6 3
2 -4 -4 -7 -4 -13 0 -13 16 0 314 231 309 240 -3 5 0 12 6 16 8 4 9 3 5 -4 -4
-7 -3 -12 3 -12 10 0 26 19 26 32 0 3 4 10 9 15 5 5 6 3 2 -4 -4 -7 -3 -13 3
-13 10 0 26 19 26 32 0 3 4 10 9 15 5 5 6 3 2 -4 -4 -7 -4 -13 -1 -13 15 0
245 182 240 190 -3 5 0 12 6 16 8 4 9 3 5 -4 -16 -26 14 -7 112 71 l104 82 1
148 c1 81 1 147 0 147 -1 0 -5 -6 -10 -12z"/>
<path d="M4845 2310 c-77 -65 -139 -123 -138 -129 1 -5 -5 -15 -15 -23 -15
-12 -16 -11 -3 5 27 35 -3 15 -105 -69 -57 -47 -102 -89 -99 -94 3 -4 -3 -14
-13 -21 -15 -13 -16 -12 -3 4 7 9 11 17 7 17 -14 0 -446 -353 -441 -360 3 -5
0 -12 -6 -16 -8 -4 -9 -3 -5 4 4 7 3 12 -2 12 -11 0 -48 -40 -44 -47 2 -3 0
-8 -4 -11 -4 -4 -4 -1 0 6 4 6 5 12 1 12 -14 0 -394 -303 -390 -310 3 -5 0
-12 -6 -16 -8 -4 -9 -3 -5 4 14 23 -7 11 -105 -64 -55 -41 -97 -79 -94 -84 3
-5 0 -12 -6 -16 -8 -4 -9 -3 -5 4 4 7 5 12 1 12 -14 0 -274 -203 -270 -210 3
-5 0 -12 -6 -16 -8 -4 -9 -3 -5 4 15 25 -10 9 -115 -69 -60 -45 -107 -85 -104
-89 3 -5 0 -12 -6 -16 -8 -4 -9 -3 -5 4 4 7 4 12 1 12 -15 0 -395 -283 -390
-290 3 -5 0 -12 -6 -16 -8 -4 -9 -3 -5 4 13 21 -4 13 -70 -34 -35 -25 -62 -50
-59 -54 3 -5 0 -12 -6 -16 -8 -4 -9 -3 -5 4 11 18 -3 14 -35 -9 -16 -11 -27
-24 -24 -29 3 -5 0 -12 -6 -16 -8 -5 -9 -3 -4 6 5 7 4 11 -3 9 -19 -7 -440
-304 -437 -308 3 -2 16 4 31 14 15 9 23 12 20 6 -5 -8 421 -11 1566 -11 l1573
0 -5 1201 c-3 751 -1 1204 5 1210 6 6 6 9 0 8 -6 0 -73 -54 -150 -119z m35 6
c0 -2 -8 -10 -17 -17 -16 -13 -17 -12 -4 4 13 16 21 21 21 13z m-230 -190 c0
-2 -8 -10 -17 -17 -16 -13 -17 -12 -4 4 13 16 21 21 21 13z"/>
</g>
</svg>
